<svg xmlns="http://www.w3.org/2000/svg" width="901" height="787"><style>.a{fill:#262626;opacity:0.2;}.b{fill:#262626;}.c{fill:none;stroke-width:2;stroke:#535461;}.d{fill:#f7c4a7;}.e{opacity:0.1;}.f{fill:#7f3f00;}.g{fill:#535461;}.h{fill:#6a5c99;}.i{fill:#ffd037;}.j{fill:#d6d6e3;}</style><defs><linearGradient id="33dd52eb-d837-4874-aadb-63a17bd6edfc" x1="0.5" y1="1" x2="0.5"><stop offset="0" stop-color="gray" stop-opacity="0.25"/><stop offset="0.54" stop-color="gray" stop-opacity="0.12"/><stop offset="1" stop-color="gray" stop-opacity="0.1"/></linearGradient></defs><title>  coding</title><title>  Layer 1</title><rect x="763.6" y="283" width="52" height="27" id="svg_1" class="a"/><rect x="767.6" y="316" width="52" height="27" id="svg_2" class="a"/><rect x="724.6" y="87" width="52" height="27" id="svg_3" class="a"/><rect x="761.6" y="118" width="52" height="27" id="svg_4" class="a"/><rect x="661.6" y="89" width="52" height="27" id="svg_5" class="a"/><rect x="828.6" y="149" width="52" height="27" id="svg_6" class="a"/><rect x="765.6" y="151" width="52" height="27" id="svg_7" class="a"/><rect x="698.6" y="120" width="52" height="27" id="svg_8" class="a"/><rect x="825.6" y="357" width="52" height="27" id="svg_9" class="a"/><rect x="762.6" y="359" width="52" height="27" id="svg_10" class="a"/><path d="m130.8 276s73.3 73.3 31.9 182 70.9 289.6 70.9 289.6 -1.2-0.2-3.4-0.6c-150.5-26.6-225.3-198.7-141.6-326.6 31.1-47.6 56.6-103.4 42.2-144.5z" id="svg_11" class="b"/><path d="m130.8 276s41.4 89.8 0 163.1 -7.1 279 102.8 308.5" id="svg_12" class="c"/><path d="m0.2 572.4s83.6-13.3 91.3 61.6 160.8 85.3 160.8 85.3 -1 0.7-2.9 1.9c-126.5 83-247.4 52.9-229.2-57.4 6.8-41 6.2-82.2-20-91.5z" id="svg_13" class="b"/><path d="m0.2 572.4s83.6-13.3 91.3 61.6 160.8 85.3 160.8 85.3 -1 0.7-2.9 1.9c-126.5 83-247.4 52.9-229.2-57.4 6.8-41 6.2-82.2-20-91.5z" id="svg_14" style="fill:#f5f5f5;opacity:0.2"/><path d="m0.2 572.4s64.9 14.3 59.6 73.3 96.4 129.8 192.5 73.7" id="svg_15" class="c"/><rect x="0.6" y="284" width="52" height="27" id="svg_16" class="a"/><rect x="37.6" y="315" width="52" height="27" id="svg_17" class="a"/><rect x="318.6" width="52" height="27" id="svg_18" class="a"/><rect x="728.6" y="498" width="52" height="27" id="svg_19" class="a"/><rect x="41.6" y="348" width="52" height="27" id="svg_20" class="a"/><rect x="355.6" y="31" width="52" height="27" id="svg_21" class="a"/><rect x="165.6" y="214" width="52" height="27" id="svg_22" class="a"/><rect x="202.6" y="245" width="52" height="27" id="svg_23" class="a"/><rect x="301.6" y="228" width="52" height="27" id="svg_24" class="a"/><rect x="206.6" y="278" width="52" height="27" id="svg_25" class="a"/><rect x="798.6" y="498" width="52" height="27" id="svg_26" class="a"/><path d="m720.7 391.1a412.3 412.3 0 0 1-6.2-56.7l0 0a76 76 0 0 0-53.5-69.4c-5.5-1.7-11.5-3.2-18.1-4.7 -58.2-12.4-75.9-1.6-77.9-0.1a74.6 74.6 0 0 1-4.4-9.6c-0.1-0.3-0.2-0.7-0.3-1a74.5 74.5 0 0 0 19.9-44.9c9.7-9.8 15.4-21.7 15.4-34.5 0-11-4.2-21.3-11.5-30.2l0-17.4a75.6 75.6 0 0 0-75.6-75.6l-6.1 0a75.6 75.6 0 0 0-75.6 75.6l0 18.7c-6.7 8.6-10.4 18.4-10.4 28.9 0 12.5 5.4 24.2 14.8 33.9a74.5 74.5 0 0 0 20.7 46.3c0.4 2.8 0.8 5.9 1.2 9.1l-104.1 22s-40.1 1.7-66 55c-21.9 45.2-65.4 161.3-78.3 195.9l0 0c-2.3 6.3-3.6 9.9-3.6 9.9s0.4-0.4 1.2-1.2l-1.2 3.4s0.6-0.6 1.8-1.7c-1.8 14.5-2.1 39.3 16.9 42.4 15.9 2.6 56.8 3.7 87.7 4.1l0 0 2.1 0c20.5 0.3 36.1 0.3 36.1 0.3l0-0.3 332.4 0 0-3.4a22.9 22.9 0 0 0-1.8-9l0.5-0.6a18.3 18.3 0 0 1 3.5 8 8 8 0 0 1-0.2 0.8l0.2-0.5a8.6 8.6 0 0 1-0.2 2.7s42.7-109.9 42.2-175.5a111.2 111.2 0 0 0-1.6-20.6zm-265.8-116.7a76.3 76.3 0 0 1-1.1-9.5s0-0.1 0-0.1c0.4 3.1 0.7 6.3 1.1 9.6zm-129.2 236l0 26.2 -16.4 3.5 16.4-29.7z" id="svg_27" fill="url(#33dd52eb-d837-4874-aadb-63a17bd6edfc)"/><path d="m503.7 57.6l0 0a75.6 75.6 0 0 1 75.6 75.6l0 32.2a0 0 0 0 1 0 0l-151.1 0a0 0 0 0 1 0 0l0-32.2a75.6 75.6 0 0 1 75.6-75.6z" id="svg_28" class="b"/><ellipse cx="504.2" cy="176" rx="86.1" ry="59.2" id="svg_29" class="b"/><path d="m449 233.3s18 94.1 0 119.4 55 35.4 55 35.4l75.6-27.5 10.6-67.6s-46-25.9-36.5-78.2l-104.7 18.5z" id="svg_30" class="d"/><path d="m672 550.4s4.8 20.6-21.1 24.3a146.5 146.5 0 0 1-46.1-0.5l-5.7-51.8 60.3 0 12.7 28z" id="svg_31" class="d"/><path d="m214.7 524s-11.4 46.5 14.5 50.7 121 4.2 121 4.2l0-55 -43.1 9.2 -40.4-38.8 -52 29.6z" id="svg_32" class="d"/><path d="m454.6 263.7l-101.2 21.4s-38.6 1.6-63.4 52.9 -78.7 197.7-78.7 197.7 46-46.5 99.9 3.2l35.9-65 -7.9 103.1 278.5 0 0-48.6s58.1 31.2 53.9 48.6c0 0 49.8-128.2 39-186.4a396.2 396.2 0 0 1-5.9-54.5l0 0a73 73 0 0 0-51.4-66.7c-5.2-1.6-11-3.1-17.4-4.5 -59.7-12.7-75 0-75 0s-11.6 37.6-11.4 54.7c0.3 21.9-31.2 36.5-31.2 36.5s-46.5-11.1-48.6-20.1 -18.7-61.6-15-72.1z" id="svg_33" class="e"/><path d="m454.6 261.6l-101.2 21.4s-38.6 1.6-63.4 52.9 -78.8 197.7-78.8 197.7 46-46.5 99.9 3.2l35.9-65 -7.9 103 278.5 0 0-48.6s58.1 31.2 53.9 48.6c0 0 49.8-128.2 39-186.4a396.2 396.2 0 0 1-5.9-54.5l0 0a73 73 0 0 0-51.4-66.7c-5.2-1.6-11-3.1-17.4-4.5 -59.7-12.7-75 0-75 0s-11.6 37.6-11.4 54.7c0.3 21.9-31.2 36.5-31.2 36.5s-46.5-11.1-48.6-20.1 -18.7-61.6-15-72.1z" id="svg_34" class="b"/><path d="m558 257.1a71.5 71.5 0 0 1-2.8-37.5l-104.7 18.5s1.5 7.9 3.2 19.8a71.9 71.9 0 0 0 104.2-0.7l0 0z" id="svg_35" class="e"/><path d="m575.9 203.2a71.9 71.9 0 0 1-143.7 1.7c0-0.6 0-1.2 0-1.7a71.9 71.9 0 0 1 40.3-64.6q3.2-1.6 6.6-2.8a72.4 72.4 0 0 1 37-3.4l0 0a71.8 71.8 0 0 1 59.6 66.1q0.2 2.4 0.2 4.8z" id="svg_36" class="d"/><g id="svg_37" class="e"><path d="m478.9 137.4l0.1-0.1q-3.4 1.3-6.6 2.8a71.9 71.9 0 0 0-40.3 64.6c0 0.6 0 1.2 0 1.7a16 16 0 0 0 6.5-1.5c17.5-8.2 28-33.2 32.2-50.6 1.5-6.2 2.9-13.3 8.2-16.9z" id="svg_38"/><path d="m534 139.4a71.3 71.3 0 0 0-17.9-5.5 23.1 23.1 0 0 1 12.8 8.1 32.9 32.9 0 0 1 3.9 7 72.1 72.1 0 0 0-60.4 1.3c4.5 9.9 18.5 15.3 27.8 18.9q15.3 5.9 31 10.8l-9.2-7.5 20.9 3.3a36.2 36.2 0 0 0-1.5-12.3c4 3.2 9.3 4.3 13.6 7 8.1 5.1 11.5 15 16 23.6 1.2 2.3 2.6 4.6 4.7 6a71.9 71.9 0 0 0-41.7-60.6z" id="svg_39"/></g><path d="m478.9 135.8l0.1-0.1q-3.4 1.3-6.6 2.8a71.9 71.9 0 0 0-40.3 64.6c0 0.6 0 1.2 0 1.7a16 16 0 0 0 6.5-1.5c17.5-8.2 28-33.2 32.2-50.6 1.5-6.2 2.9-13.3 8.2-16.9z" id="svg_40" class="f"/><path d="m534 137.8a71.3 71.3 0 0 0-17.9-5.5 23.1 23.1 0 0 1 12.8 8.1 32.9 32.9 0 0 1 3.9 7 72.1 72.1 0 0 0-60.4 1.3c4.5 9.9 18.5 15.3 27.8 18.9q15.3 5.9 31 10.8l-9.2-7.5 20.9 3.3a36.2 36.2 0 0 0-1.5-12.3c4 3.2 9.3 4.3 13.6 7 8.1 5.1 11.5 15 16 23.6 1.2 2.3 2.6 4.6 4.7 6a71.9 71.9 0 0 0-41.7-60.6z" id="svg_41" class="f"/><path d="m423.9 191.3s74-92 159.6 0l-7.4-20.6s-40.2-58.7-68.7-46 -56.5 21.7-56.5 21.7l-27 44.9z" id="svg_42" class="e"/><path d="m423.9 189.7s74-92 159.6 0l-7.4-20.6s-40.2-58.7-68.7-46 -56.5 21.7-56.5 21.7l-27 44.9z" id="svg_43" class="b"/><path d="m363.1 387.9s-15.8 42.3 6.3 80.3 -19.5 53.9-19.5 53.9" id="svg_44" class="e"/><path d="m620 349.8s27.5 34.9 9.5 66.1 -16.9 106.2-16.9 106.2" id="svg_45" class="e"/><path d="m338.8 553.3l305.5 0a25.4 25.4 0 0 1 25.4 25.4l0 0a0 0 0 0 1 0 0l-356.2 0a0 0 0 0 1 0 0l0 0a25.4 25.4 0 0 1 25.4-25.4z" id="svg_46" class="g"/><path d="m369.9 378.9l243.3 0a39 39 0 0 1 39 39l0 141.2a0 0 0 0 1 0 0l-321.3 0a0 0 0 0 1 0 0l0-141.2a39 39 0 0 1 39-39z" id="svg_47" class="g"/><circle cx="491.3" cy="476.9" r="19" id="svg_48" fill="#fff"/><path d="m428.1 148.2s72.7-72.7 151.2-1.3" id="svg_49" style="fill:none;opacity:0.1;stroke:#000"/><rect x="590.4" y="143.6" width="7.3" height="41.4" id="svg_50" class="h"/><path d="m580.6 170.4l0 0a25.2 25.2 0 0 1 25.2 25.2l0 1.6a25.2 25.2 0 0 1-25.2 25.2l0 0a0 0 0 0 1 0 0l0-51.9a0 0 0 0 1 0 0z" id="svg_51" class="i"/><rect x="575.8" y="167.9" width="11.4" height="56.8" rx="5.7" ry="5.7" id="svg_52" class="h"/><rect x="1533.2" y="587.5" width="7.3" height="41.4" transform="rotate(-180 974.760009765625 386.6499938964844)" id="svg_53" class="h"/><path d="m1526.7 678.4l0 0a25.2 25.2 0 0 1 25.2 25.2l0 1.6a25.2 25.2 0 0 1-25.2 25.2l0 0a0 0 0 0 1 0 0l0-51.9a0 0 0 0 1 0 0z" id="svg_54" class="i"/><rect x="1568.9" y="676" width="11.4" height="56.8" rx="5.7" ry="5.7" transform="rotate(-180 999.9199829101562 450.760009765625)" id="svg_55" class="h"/><path d="m589.5 99.3c-9.9-20.6-31.4-45.4-77.9-47.4l0-0.1 -0.6 0 0 0 -16.4 0.8 0 0.1c-46.1 2.1-67.6 26.9-77.4 47.4a106.6 106.6 0 0 0-10.2 44.4l5.7-0.1 5.7-0.1a96.7 96.7 0 0 1 9.2-39.5c12.5-25.7 35.6-39.4 68.5-40.7l0 0 14.6-0.8 0 0c32.9 1.3 56 15 68.5 40.7a96.7 96.7 0 0 1 9.3 39.5l5.7 0.1 5.7 0.1a106.6 106.6 0 0 0-10.2-44.4z" id="svg_56" class="i"/><rect x="74.3" y="579" width="774.7" height="208" id="svg_57" class="j"/><rect x="74.3" y="593" width="774.7" height="27" id="svg_58" class="e"/><rect x="22.3" y="576" width="878.6" height="27" id="svg_59" class="j"/></svg>