<svg width="900.94" height="787" xmlns="http://www.w3.org/2000/svg" xmlns:svg="http://www.w3.org/2000/svg">
 <defs>
  <linearGradient id="33dd52eb-d837-4874-aadb-63a17bd6edfc" x1="0.49999" y1="1.00009" x2="0.49999" y2="0">
   <stop offset="0" stop-color="gray" stop-opacity="0.25"/>
   <stop offset="0.54" stop-color="gray" stop-opacity="0.12"/>
   <stop offset="1" stop-color="gray" stop-opacity="0.1"/>
  </linearGradient>
 </defs>
 <title>coding</title>
 <g>
  <title>Layer 1</title>
  <rect x="763.63" y="283" width="52" height="27" fill="#262626" opacity="0.2" id="svg_1"/>
  <rect x="767.63" y="316" width="52" height="27" fill="#262626" opacity="0.2" id="svg_2"/>
  <rect x="724.63" y="87" width="52" height="27" fill="#262626" opacity="0.2" id="svg_3"/>
  <rect x="761.63" y="118" width="52" height="27" fill="#262626" opacity="0.2" id="svg_4"/>
  <rect x="661.63" y="89" width="52" height="27" fill="#262626" opacity="0.2" id="svg_5"/>
  <rect x="828.63" y="149" width="52" height="27" fill="#262626" opacity="0.2" id="svg_6"/>
  <rect x="765.63" y="151" width="52" height="27" fill="#262626" opacity="0.2" id="svg_7"/>
  <rect x="698.63" y="120" width="52" height="27" fill="#262626" opacity="0.2" id="svg_8"/>
  <rect x="825.63" y="357" width="52" height="27" fill="#262626" opacity="0.2" id="svg_9"/>
  <rect x="762.63" y="359" width="52" height="27" fill="#262626" opacity="0.2" id="svg_10"/>
  <path d="m130.75,276s73.29,73.29 31.92,182s70.91,289.64 70.91,289.64s-1.2,-0.18 -3.43,-0.57c-150.52,-26.57 -225.31,-198.72 -141.57,-326.57c31.08,-47.59 56.62,-103.36 42.17,-144.5z" fill="#262626" id="svg_11"/>
  <path d="m130.75,276s41.37,89.84 0,163.12s-7.09,279 102.84,308.52" fill="none" stroke="#535461" stroke-miterlimit="10" stroke-width="2" id="svg_12"/>
  <path d="m0.21,572.42s83.63,-13.32 91.25,61.63s160.82,85.34 160.82,85.34s-1,0.68 -2.87,1.91c-126.49,83 -247.4,52.89 -229.17,-57.36c6.77,-40.99 6.21,-82.16 -20.03,-91.52z" fill="#262626" id="svg_13"/>
  <path d="m0.21,572.42s83.63,-13.32 91.25,61.63s160.82,85.34 160.82,85.34s-1,0.68 -2.87,1.91c-126.49,83 -247.4,52.89 -229.17,-57.36c6.77,-40.99 6.21,-82.16 -20.03,-91.52z" fill="#f5f5f5" opacity="0.2" id="svg_14"/>
  <path d="m0.21,572.42s64.91,14.25 59.58,73.27s96.4,129.81 192.49,73.7" fill="none" stroke="#535461" stroke-miterlimit="10" stroke-width="2" id="svg_15"/>
  <rect x="0.63" y="284" width="52" height="27" fill="#262626" opacity="0.2" id="svg_16"/>
  <rect x="37.63" y="315" width="52" height="27" fill="#262626" opacity="0.2" id="svg_17"/>
  <rect x="318.63" width="52" height="27" fill="#262626" opacity="0.2" id="svg_18"/>
  <rect x="728.63" y="498" width="52" height="27" fill="#262626" opacity="0.2" id="svg_19"/>
  <rect x="41.63" y="348" width="52" height="27" fill="#262626" opacity="0.2" id="svg_20"/>
  <rect x="355.63" y="31" width="52" height="27" fill="#262626" opacity="0.2" id="svg_21"/>
  <rect x="165.63" y="214" width="52" height="27" fill="#262626" opacity="0.2" id="svg_22"/>
  <rect x="202.63" y="245" width="52" height="27" fill="#262626" opacity="0.2" id="svg_23"/>
  <rect x="301.63" y="228" width="52" height="27" fill="#262626" opacity="0.2" id="svg_24"/>
  <rect x="206.63" y="278" width="52" height="27" fill="#262626" opacity="0.2" id="svg_25"/>
  <rect x="798.63" y="498" width="52" height="27" fill="#262626" opacity="0.2" id="svg_26"/>
  <path d="m720.65,391.11a412.25,412.25 0 0 1 -6.18,-56.71l0,0a76,76 0 0 0 -53.46,-69.38c-5.46,-1.68 -11.47,-3.25 -18.11,-4.66c-58.2,-12.36 -75.88,-1.57 -77.89,-0.15a74.63,74.63 0 0 1 -4.43,-9.61c-0.1,-0.34 -0.19,-0.68 -0.29,-1a74.51,74.51 0 0 0 19.91,-44.89c9.71,-9.84 15.38,-21.72 15.38,-34.51c0,-11 -4.2,-21.32 -11.55,-30.25l0,-17.38a75.57,75.57 0 0 0 -75.57,-75.57l-6.13,0a75.57,75.57 0 0 0 -75.57,75.57l0,18.73c-6.67,8.61 -10.45,18.44 -10.45,28.88c0,12.52 5.44,24.16 14.78,33.88a74.52,74.52 0 0 0 20.74,46.34c0.41,2.84 0.83,5.89 1.24,9.11l-104.1,21.99s-40.14,1.65 -66,55c-21.87,45.19 -65.39,161.29 -78.28,195.85l0,0c-2.33,6.26 -3.65,9.85 -3.65,9.85s0.43,-0.43 1.24,-1.17l-1.24,3.37s0.63,-0.64 1.83,-1.69c-1.82,14.46 -2.08,39.29 16.86,42.38c15.88,2.59 56.8,3.66 87.71,4.09l0,0l2.14,0c20.49,0.27 36.08,0.27 36.08,0.27l0,-0.27l332.44,0l0,-3.41a22.91,22.91 0 0 0 -1.83,-9l0.46,-0.56a18.25,18.25 0 0 1 3.45,8a8,8 0 0 1 -0.16,0.84l0.2,-0.51a8.56,8.56 0 0 1 -0.2,2.71s42.65,-109.89 42.19,-175.51a111.17,111.17 0 0 0 -1.56,-20.63zm-265.85,-116.75a76.25,76.25 0 0 1 -1.06,-9.48s0,-0.06 0,-0.09c0.37,3.09 0.73,6.29 1.06,9.57zm-129.22,236.04l0,26.19l-16.4,3.51l16.4,-29.7z" fill="url(#33dd52eb-d837-4874-aadb-63a17bd6edfc)" id="svg_27"/>
  <path d="m503.71,57.57l0,0a75.57,75.57 0 0 1 75.57,75.57l0,32.24a0,0 0 0 1 0,0l-151.14,0a0,0 0 0 1 0,0l0,-32.24a75.57,75.57 0 0 1 75.57,-75.57z" fill="#262626" id="svg_28"/>
  <ellipse cx="504.24" cy="175.95" rx="86.14" ry="59.19" fill="#262626" id="svg_29"/>
  <path d="m449.02,233.29s18,94.07 0,119.44s55,35.41 55,35.41l75.56,-27.48l10.57,-67.65s-46,-25.9 -36.47,-78.22l-104.66,18.5z" fill="#f7c4a7" id="svg_30"/>
  <path d="m672.04,550.39s4.76,20.61 -21.14,24.31a146.45,146.45 0 0 1 -46.08,-0.55l-5.71,-51.77l60.25,0l12.68,28.01z" fill="#f7c4a7" id="svg_31"/>
  <path d="m214.7,524.01s-11.44,46.49 14.46,50.69s121,4.23 121,4.23l0,-55l-43.06,9.2l-40.42,-38.76l-51.98,29.64z" fill="#f7c4a7" id="svg_32"/>
  <path d="m454.58,263.68l-101.21,21.4s-38.58,1.59 -63.42,52.85s-78.75,197.66 -78.75,197.66s46,-46.51 99.89,3.17l35.94,-65l-7.93,103.06l278.48,0l0,-48.63s58.13,31.18 53.91,48.62c0,0 49.75,-128.18 39,-186.43a396.18,396.18 0 0 1 -5.94,-54.5l0,0a73,73 0 0 0 -51.38,-66.67c-5.24,-1.61 -11,-3.12 -17.4,-4.47c-59.72,-12.68 -75,0 -75,0s-11.57,37.64 -11.36,54.7c0.26,21.93 -31.18,36.47 -31.18,36.47s-46.51,-11.1 -48.62,-20.08s-18.75,-61.58 -15.03,-72.15z" opacity="0.1" id="svg_33"/>
  <path d="m454.58,261.57l-101.21,21.4s-38.58,1.59 -63.42,52.85s-78.76,197.68 -78.76,197.68s46,-46.51 99.89,3.17l35.94,-65l-7.93,103.03l278.49,0l0,-48.62s58.13,31.18 53.91,48.62c0,0 49.75,-128.18 39,-186.43a396.18,396.18 0 0 1 -5.94,-54.5l0,0a73,73 0 0 0 -51.38,-66.67c-5.24,-1.61 -11,-3.12 -17.4,-4.47c-59.72,-12.68 -75,0 -75,0s-11.57,37.64 -11.36,54.7c0.26,21.93 -31.18,36.47 -31.18,36.47s-46.51,-11.1 -48.62,-20.08s-18.75,-61.58 -15.03,-72.15z" fill="#262626" id="svg_34"/>
  <path d="m558,257.08a71.53,71.53 0 0 1 -2.76,-37.52l-104.66,18.49s1.51,7.91 3.22,19.76a71.86,71.86 0 0 0 104.18,-0.73l0.02,0z" opacity="0.1" id="svg_35"/>
  <path d="m575.85,203.17a71.88,71.88 0 0 1 -143.73,1.74c0,-0.58 0,-1.16 0,-1.74a71.89,71.89 0 0 1 40.29,-64.59q3.23,-1.58 6.64,-2.84a72.39,72.39 0 0 1 37,-3.44l0,0a71.82,71.82 0 0 1 59.61,66.1q0.19,2.37 0.19,4.77z" fill="#f7c4a7" id="svg_36"/>
  <g opacity="0.1" id="svg_37">
   <path d="m478.94,137.43l0.1,-0.06q-3.41,1.26 -6.64,2.84a71.89,71.89 0 0 0 -40.29,64.59c0,0.58 0,1.16 0,1.74a16,16 0 0 0 6.45,-1.55c17.52,-8.18 28,-33.2 32.16,-50.65c1.5,-6.25 2.91,-13.29 8.22,-16.91z" id="svg_38"/>
   <path d="m533.95,139.44a71.28,71.28 0 0 0 -17.87,-5.51a23.06,23.06 0 0 1 12.83,8.06a32.86,32.86 0 0 1 3.93,7a72.07,72.07 0 0 0 -60.45,1.25c4.51,9.89 18.5,15.28 27.84,18.89q15.34,5.92 31,10.83l-9.24,-7.5l20.87,3.32a36.15,36.15 0 0 0 -1.46,-12.3c4,3.22 9.3,4.3 13.64,7c8.13,5.13 11.52,15 15.95,23.55c1.17,2.26 2.55,4.57 4.66,6a71.91,71.91 0 0 0 -41.7,-60.59z" id="svg_39"/>
  </g>
  <path d="m478.94,135.8l0.1,-0.06q-3.41,1.26 -6.64,2.84a71.89,71.89 0 0 0 -40.29,64.59c0,0.58 0,1.16 0,1.74a16,16 0 0 0 6.45,-1.55c17.52,-8.18 28,-33.2 32.16,-50.65c1.5,-6.21 2.91,-13.28 8.22,-16.91z" fill="#7f3f00" id="svg_40"/>
  <path d="m533.95,137.82a71.28,71.28 0 0 0 -17.87,-5.51a23.06,23.06 0 0 1 12.83,8.06a32.86,32.86 0 0 1 3.93,7a72.07,72.07 0 0 0 -60.45,1.25c4.51,9.89 18.5,15.28 27.84,18.89q15.34,5.92 31,10.83l-9.24,-7.5l20.87,3.32a36.15,36.15 0 0 0 -1.46,-12.3c4,3.22 9.3,4.3 13.64,7c8.13,5.13 11.52,15 15.95,23.55c1.17,2.26 2.55,4.57 4.66,6a71.91,71.91 0 0 0 -41.7,-60.59z" fill="#7f3f00" id="svg_41"/>
  <path d="m423.91,191.32s74,-92 159.61,0l-7.4,-20.61s-40.17,-58.66 -68.7,-46s-56.55,21.67 -56.55,21.67l-26.96,44.94z" opacity="0.1" id="svg_42"/>
  <path d="m423.91,189.69s74,-92 159.61,0l-7.4,-20.61s-40.17,-58.66 -68.7,-46s-56.55,21.67 -56.55,21.67l-26.96,44.94z" fill="#262626" id="svg_43"/>
  <path d="m363.13,387.88s-15.85,42.28 6.34,80.33s-19.55,53.91 -19.55,53.91" opacity="0.1" id="svg_44"/>
  <path d="m619.98,349.83s27.48,34.88 9.51,66.06s-16.91,106.23 -16.91,106.23" opacity="0.1" id="svg_45"/>
  <path d="m338.82,553.3l305.47,0a25.37,25.37 0 0 1 25.37,25.37l0,0a0,0 0 0 1 0,0l-356.2,0a0,0 0 0 1 0,0l0,0a25.37,25.37 0 0 1 25.36,-25.37z" fill="#535461" id="svg_46"/>
  <path d="m369.9,378.89l243.32,0a39,39 0 0 1 39,39l0,141.22a0,0 0 0 1 0,0l-321.32,0a0,0 0 0 1 0,0l0,-141.22a39,39 0 0 1 39,-39z" fill="#535461" id="svg_47"/>
  <circle cx="491.29" cy="476.93" r="19.03" fill="#fff" id="svg_48"/>
  <path fill-opacity="0" d="m428.14,148.2s72.72,-72.68 151.15,-1.33" fill="#262626" stroke="#000" stroke-miterlimit="10" opacity="0.1" id="svg_49"/>
  <rect x="590.36" y="143.57" width="7.3" height="41.39" fill="#6a5c99" id="svg_50"/>
  <path d="m580.62,170.35l0,0a25.16,25.16 0 0 1 25.16,25.16l0,1.62a25.16,25.16 0 0 1 -25.16,25.16l0,0a0,0 0 0 1 0,0l0,-51.94a0,0 0 0 1 0,0z" fill="#ffd037" id="svg_51"/>
  <rect x="575.75" y="167.92" width="11.36" height="56.81" rx="5.68" ry="5.68" fill="#6a5c99" id="svg_52"/>
  <rect x="1533.20001" y="587.52999" width="7.3" height="41.39" transform="rotate(-180 974.760009765625,386.6499938964844) " fill="#6a5c99" id="svg_53"/>
  <path d="m1526.7,678.42001l0,0a25.16,25.16 0 0 1 25.16,25.16l0,1.62a25.16,25.16 0 0 1 -25.16,25.16l0,0a0,0 0 0 1 0,0l0,-51.94a0,0 0 0 1 0,0z" transform="rotate(180 976.3800048828125,450.760009765625) " fill="#ffd037" id="svg_54"/>
  <rect x="1568.90998" y="675.99001" width="11.36" height="56.81" rx="5.68" ry="5.68" transform="rotate(-180 999.9199829101562,450.760009765625) " fill="#6a5c99" id="svg_55"/>
  <path d="m589.5,99.33c-9.89,-20.56 -31.43,-45.42 -77.86,-47.41l0,-0.06l-0.56,0l0,0l-16.45,0.78l0,0.08c-46.12,2.12 -67.56,26.89 -77.42,47.38a106.59,106.59 0 0 0 -10.22,44.4l5.68,-0.14l5.68,-0.13a96.65,96.65 0 0 1 9.23,-39.52c12.52,-25.72 35.56,-39.39 68.47,-40.66l0,0l14.55,-0.81l0,0c32.93,1.26 55.98,14.95 68.49,40.66a96.65,96.65 0 0 1 9.25,39.54l5.68,0.13l5.68,0.14a106.59,106.59 0 0 0 -10.2,-44.38z" fill="#ffd037" id="svg_56"/>
  <rect x="74.28" y="579" width="774.71" height="208" fill="#d6d6e3" id="svg_57"/>
  <rect x="74.28" y="593" width="774.71" height="27" opacity="0.1" id="svg_58"/>
  <rect x="22.31" y="576" width="878.63" height="27" fill="#d6d6e3" id="svg_59"/>
 </g>
</svg>