<?xml version="1.0" encoding="UTF-8" standalone="no"?>
<svg
   xmlns:dc="http://purl.org/dc/elements/1.1/"
   xmlns:cc="http://creativecommons.org/ns#"
   xmlns:rdf="http://www.w3.org/1999/02/22-rdf-syntax-ns#"
   xmlns:svg="http://www.w3.org/2000/svg"
   xmlns="http://www.w3.org/2000/svg"
   xmlns:sodipodi="http://sodipodi.sourceforge.net/DTD/sodipodi-0.dtd"
   xmlns:inkscape="http://www.inkscape.org/namespaces/inkscape"
   viewBox="0 0 900 787"
   version="1.1"
   id="svg164"
   sodipodi:docname="splashcoding.svg"
   inkscape:version="0.92.3 (2405546, 2018-03-11)">
  <metadata
     id="metadata168">
    <rdf:RDF>
      <cc:Work
         rdf:about="">
        <dc:format>image/svg+xml</dc:format>
        <dc:type
           rdf:resource="http://purl.org/dc/dcmitype/StillImage" />
      </cc:Work>
    </rdf:RDF>
  </metadata>
  <sodipodi:namedview
     pagecolor="#ffffff"
     bordercolor="#666666"
     borderopacity="1"
     objecttolerance="10"
     gridtolerance="10"
     guidetolerance="10"
     inkscape:pageopacity="0"
     inkscape:pageshadow="2"
     inkscape:window-width="1920"
     inkscape:window-height="1057"
     id="namedview166"
     showgrid="false"
     inkscape:zoom="1.1283355"
     inkscape:cx="450"
     inkscape:cy="393.5"
     inkscape:window-x="-8"
     inkscape:window-y="-8"
     inkscape:window-maximized="1"
     inkscape:current-layer="svg164" />
  <defs
     id="defs97">
    <linearGradient
       id="33dd52eb-d837-4874-aadb-63a17bd6edfc"
       x1="0.49999"
       y1="1.00009"
       x2="0.49999"
       y2="0">
      <stop
         offset="0"
         stop-color="gray"
         stop-opacity="0.25"
         id="stop90" />
      <stop
         offset="0.54"
         stop-color="gray"
         stop-opacity="0.12"
         id="stop92" />
      <stop
         offset="1"
         stop-color="gray"
         stop-opacity="0.1"
         id="stop94" />
    </linearGradient>
  </defs>
  <title
     id="title99">coding</title>
  <g
     id="g162">
    <title
       id="title101">Layer 1</title>
    <rect
       x="763.63"
       y="283"
       width="52"
       height="27"
       id="svg_1"
       fill="#262626"
       opacity="0.2" />
    <rect
       x="767.63"
       y="316"
       width="52"
       height="27"
       id="svg_2"
       fill="#262626"
       opacity="0.2" />
    <rect
       x="724.63"
       y="87"
       width="52"
       height="27"
       id="svg_3"
       fill="#262626"
       opacity="0.2" />
    <rect
       x="761.63"
       y="118"
       width="52"
       height="27"
       id="svg_4"
       fill="#262626"
       opacity="0.2" />
    <rect
       x="661.63"
       y="89"
       width="52"
       height="27"
       id="svg_5"
       fill="#262626"
       opacity="0.2" />
    <rect
       x="828.63"
       y="149"
       width="52"
       height="27"
       id="svg_6"
       fill="#262626"
       opacity="0.2" />
    <rect
       x="765.63"
       y="151"
       width="52"
       height="27"
       id="svg_7"
       fill="#262626"
       opacity="0.2" />
    <rect
       x="698.63"
       y="120"
       width="52"
       height="27"
       id="svg_8"
       fill="#262626"
       opacity="0.2" />
    <rect
       x="825.63"
       y="357"
       width="52"
       height="27"
       id="svg_9"
       fill="#262626"
       opacity="0.2" />
    <rect
       x="762.63"
       y="359"
       width="52"
       height="27"
       id="svg_10"
       fill="#262626"
       opacity="0.2" />
    <path
       d="m130.75,276s73.29,73.29 31.92,182s70.91,289.64 70.91,289.64s-1.2,-0.18 -3.43,-0.57c-150.52,-26.57 -225.31,-198.72 -141.57,-326.57c31.08,-47.59 56.62,-103.36 42.17,-144.5z"
       id="svg_11"
       fill="#262626" />
    <path
       d="m130.75,276s41.37,89.84 0,163.12s-7.09,279 102.84,308.52"
       stroke-miterlimit="10"
       id="svg_12"
       stroke-width="2"
       stroke="#535461"
       fill="none" />
    <path
       d="m0.21,572.42s83.63,-13.32 91.25,61.63s160.82,85.34 160.82,85.34s-1,0.68 -2.87,1.91c-126.49,83 -247.4,52.89 -229.17,-57.36c6.77,-40.99 6.21,-82.16 -20.03,-91.52z"
       id="svg_13"
       fill="#262626" />
    <path
       d="m0.21,572.42s83.63,-13.32 91.25,61.63s160.82,85.34 160.82,85.34s-1,0.68 -2.87,1.91c-126.49,83 -247.4,52.89 -229.17,-57.36c6.77,-40.99 6.21,-82.16 -20.03,-91.52z"
       id="svg_14"
       fill="#f5f5f5"
       opacity="0.2" />
    <path
       d="m0.21,572.42s64.91,14.25 59.58,73.27s96.4,129.81 192.49,73.7"
       stroke-miterlimit="10"
       id="svg_15"
       stroke-width="2"
       stroke="#535461"
       fill="none" />
    <rect
       x="0.63"
       y="284"
       width="52"
       height="27"
       id="svg_16"
       fill="#262626"
       opacity="0.2" />
    <rect
       x="37.63"
       y="315"
       width="52"
       height="27"
       id="svg_17"
       fill="#262626"
       opacity="0.2" />
    <rect
       x="318.63"
       width="52"
       height="27"
       id="svg_18"
       fill="#262626"
       opacity="0.2" />
    <rect
       x="728.63"
       y="498"
       width="52"
       height="27"
       id="svg_19"
       fill="#262626"
       opacity="0.2" />
    <rect
       x="41.63"
       y="348"
       width="52"
       height="27"
       id="svg_20"
       fill="#262626"
       opacity="0.2" />
    <rect
       x="355.63"
       y="31"
       width="52"
       height="27"
       id="svg_21"
       fill="#262626"
       opacity="0.2" />
    <rect
       x="165.63"
       y="214"
       width="52"
       height="27"
       id="svg_22"
       fill="#262626"
       opacity="0.2" />
    <rect
       x="202.63"
       y="245"
       width="52"
       height="27"
       id="svg_23"
       fill="#262626"
       opacity="0.2" />
    <rect
       x="301.63"
       y="228"
       width="52"
       height="27"
       id="svg_24"
       fill="#262626"
       opacity="0.2" />
    <rect
       x="206.63"
       y="278"
       width="52"
       height="27"
       id="svg_25"
       fill="#262626"
       opacity="0.2" />
    <rect
       x="798.63"
       y="498"
       width="52"
       height="27"
       id="svg_26"
       fill="#262626"
       opacity="0.2" />
    <path
       d="m720.65,391.11a412.25,412.25 0 0 1 -6.18,-56.71l0,0a76,76 0 0 0 -53.46,-69.38c-5.46,-1.68 -11.47,-3.25 -18.11,-4.66c-58.2,-12.36 -75.88,-1.57 -77.89,-0.15a74.63,74.63 0 0 1 -4.43,-9.61c-0.1,-0.34 -0.19,-0.68 -0.29,-1a74.51,74.51 0 0 0 19.91,-44.89c9.71,-9.84 15.38,-21.72 15.38,-34.51c0,-11 -4.2,-21.32 -11.55,-30.25l0,-17.38a75.57,75.57 0 0 0 -75.57,-75.57l-6.13,0a75.57,75.57 0 0 0 -75.57,75.57l0,18.73c-6.67,8.61 -10.45,18.44 -10.45,28.88c0,12.52 5.44,24.16 14.78,33.88a74.52,74.52 0 0 0 20.74,46.34c0.41,2.84 0.83,5.89 1.24,9.11l-104.1,21.99s-40.14,1.65 -66,55c-21.87,45.19 -65.39,161.29 -78.28,195.85l0,0c-2.33,6.26 -3.65,9.85 -3.65,9.85s0.43,-0.43 1.24,-1.17l-1.24,3.37s0.63,-0.64 1.83,-1.69c-1.82,14.46 -2.08,39.29 16.86,42.38c15.88,2.59 56.8,3.66 87.71,4.09l0,0l2.14,0c20.49,0.27 36.08,0.27 36.08,0.27l0,-0.27l332.44,0l0,-3.41a22.91,22.91 0 0 0 -1.83,-9l0.46,-0.56a18.25,18.25 0 0 1 3.45,8a8,8 0 0 1 -0.16,0.84l0.2,-0.51a8.56,8.56 0 0 1 -0.2,2.71s42.65,-109.89 42.19,-175.51a111.17,111.17 0 0 0 -1.56,-20.63zm-265.85,-116.75a76.25,76.25 0 0 1 -1.06,-9.48s0,-0.06 0,-0.09c0.37,3.09 0.73,6.29 1.06,9.57zm-129.22,236.04l0,26.19l-16.4,3.51l16.4,-29.7z"
       id="svg_27"
       fill="url(#33dd52eb-d837-4874-aadb-63a17bd6edfc)" />
    <path
       d="m503.71,57.57l0,0a75.57,75.57 0 0 1 75.57,75.57l0,32.24a0,0 0 0 1 0,0l-151.14,0a0,0 0 0 1 0,0l0,-32.24a75.57,75.57 0 0 1 75.57,-75.57z"
       id="svg_28"
       fill="#262626" />
    <ellipse
       cx="504.24"
       cy="175.95"
       rx="86.14"
       ry="59.19"
       id="svg_29"
       fill="#262626" />
    <path
       d="m449.02,233.29s18,94.07 0,119.44s55,35.41 55,35.41l75.56,-27.48l10.57,-67.65s-46,-25.9 -36.47,-78.22l-104.66,18.5z"
       id="svg_30"
       fill="#f7c4a7" />
    <path
       d="m672.04,550.39s4.76,20.61 -21.14,24.31a146.45,146.45 0 0 1 -46.08,-0.55l-5.71,-51.77l60.25,0l12.68,28.01z"
       id="svg_31"
       fill="#f7c4a7" />
    <path
       d="m214.7,524.01s-11.44,46.49 14.46,50.69s121,4.23 121,4.23l0,-55l-43.06,9.2l-40.42,-38.76l-51.98,29.64z"
       id="svg_32"
       fill="#f7c4a7" />
    <path
       d="m454.58,263.68l-101.21,21.4s-38.58,1.59 -63.42,52.85s-78.75,197.66 -78.75,197.66s46,-46.51 99.89,3.17l35.94,-65l-7.93,103.06l278.48,0l0,-48.63s58.13,31.18 53.91,48.62c0,0 49.75,-128.18 39,-186.43a396.18,396.18 0 0 1 -5.94,-54.5l0,0a73,73 0 0 0 -51.38,-66.67c-5.24,-1.61 -11,-3.12 -17.4,-4.47c-59.72,-12.68 -75,0 -75,0s-11.57,37.64 -11.36,54.7c0.26,21.93 -31.18,36.47 -31.18,36.47s-46.51,-11.1 -48.62,-20.08s-18.75,-61.58 -15.03,-72.15z"
       id="svg_33"
       opacity="0.1" />
    <path
       d="m454.58,261.57l-101.21,21.4s-38.58,1.59 -63.42,52.85s-78.76,197.68 -78.76,197.68s46,-46.51 99.89,3.17l35.94,-65l-7.93,103.03l278.49,0l0,-48.62s58.13,31.18 53.91,48.62c0,0 49.75,-128.18 39,-186.43a396.18,396.18 0 0 1 -5.94,-54.5l0,0a73,73 0 0 0 -51.38,-66.67c-5.24,-1.61 -11,-3.12 -17.4,-4.47c-59.72,-12.68 -75,0 -75,0s-11.57,37.64 -11.36,54.7c0.26,21.93 -31.18,36.47 -31.18,36.47s-46.51,-11.1 -48.62,-20.08s-18.75,-61.58 -15.03,-72.15z"
       id="svg_34"
       fill="#262626" />
    <path
       d="m558,257.08a71.53,71.53 0 0 1 -2.76,-37.52l-104.66,18.49s1.51,7.91 3.22,19.76a71.86,71.86 0 0 0 104.18,-0.73l0.02,0z"
       id="svg_35"
       opacity="0.1" />
    <path
       d="m575.85,203.17a71.88,71.88 0 0 1 -143.73,1.74c0,-0.58 0,-1.16 0,-1.74a71.89,71.89 0 0 1 40.29,-64.59q3.23,-1.58 6.64,-2.84a72.39,72.39 0 0 1 37,-3.44l0,0a71.82,71.82 0 0 1 59.61,66.1q0.19,2.37 0.19,4.77z"
       id="svg_36"
       fill="#f7c4a7" />
    <g
       id="svg_37"
       opacity="0.1">
      <path
         d="m478.94,137.43l0.1,-0.06q-3.41,1.26 -6.64,2.84a71.89,71.89 0 0 0 -40.29,64.59c0,0.58 0,1.16 0,1.74a16,16 0 0 0 6.45,-1.55c17.52,-8.18 28,-33.2 32.16,-50.65c1.5,-6.25 2.91,-13.29 8.22,-16.91z"
         id="svg_38" />
      <path
         d="m533.95,139.44a71.28,71.28 0 0 0 -17.87,-5.51a23.06,23.06 0 0 1 12.83,8.06a32.86,32.86 0 0 1 3.93,7a72.07,72.07 0 0 0 -60.45,1.25c4.51,9.89 18.5,15.28 27.84,18.89q15.34,5.92 31,10.83l-9.24,-7.5l20.87,3.32a36.15,36.15 0 0 0 -1.46,-12.3c4,3.22 9.3,4.3 13.64,7c8.13,5.13 11.52,15 15.95,23.55c1.17,2.26 2.55,4.57 4.66,6a71.91,71.91 0 0 0 -41.7,-60.59z"
         id="svg_39" />
    </g>
    <path
       d="m478.94,135.8l0.1,-0.06q-3.41,1.26 -6.64,2.84a71.89,71.89 0 0 0 -40.29,64.59c0,0.58 0,1.16 0,1.74a16,16 0 0 0 6.45,-1.55c17.52,-8.18 28,-33.2 32.16,-50.65c1.5,-6.21 2.91,-13.28 8.22,-16.91z"
       id="svg_40"
       fill="#7f3f00" />
    <path
       d="m533.95,137.82a71.28,71.28 0 0 0 -17.87,-5.51a23.06,23.06 0 0 1 12.83,8.06a32.86,32.86 0 0 1 3.93,7a72.07,72.07 0 0 0 -60.45,1.25c4.51,9.89 18.5,15.28 27.84,18.89q15.34,5.92 31,10.83l-9.24,-7.5l20.87,3.32a36.15,36.15 0 0 0 -1.46,-12.3c4,3.22 9.3,4.3 13.64,7c8.13,5.13 11.52,15 15.95,23.55c1.17,2.26 2.55,4.57 4.66,6a71.91,71.91 0 0 0 -41.7,-60.59z"
       id="svg_41"
       fill="#7f3f00" />
    <path
       d="m423.91,191.32s74,-92 159.61,0l-7.4,-20.61s-40.17,-58.66 -68.7,-46s-56.55,21.67 -56.55,21.67l-26.96,44.94z"
       id="svg_42"
       opacity="0.1" />
    <path
       d="m423.91,189.69s74,-92 159.61,0l-7.4,-20.61s-40.17,-58.66 -68.7,-46s-56.55,21.67 -56.55,21.67l-26.96,44.94z"
       id="svg_43"
       fill="#262626" />
    <path
       d="m363.13,387.88s-15.85,42.28 6.34,80.33s-19.55,53.91 -19.55,53.91"
       id="svg_44"
       opacity="0.1" />
    <path
       d="m619.98,349.83s27.48,34.88 9.51,66.06s-16.91,106.23 -16.91,106.23"
       id="svg_45"
       opacity="0.1" />
    <path
       d="m338.82,553.3l305.47,0a25.37,25.37 0 0 1 25.37,25.37l0,0a0,0 0 0 1 0,0l-356.2,0a0,0 0 0 1 0,0l0,0a25.37,25.37 0 0 1 25.36,-25.37z"
       id="svg_46"
       fill="#535461" />
    <path
       d="m369.9,378.89l243.32,0a39,39 0 0 1 39,39l0,141.22a0,0 0 0 1 0,0l-321.32,0a0,0 0 0 1 0,0l0,-141.22a39,39 0 0 1 39,-39z"
       id="svg_47"
       fill="#535461" />
    <circle
       cx="491.29"
       cy="476.93"
       r="19.03"
       id="svg_48"
       fill="#fff" />
    <path
       d="m428.14,148.2s72.72,-72.68 151.15,-1.33"
       stroke-miterlimit="10"
       id="svg_49"
       stroke="#000"
       fill-opacity="0"
       fill="#262626"
       opacity="0.1" />
    <rect
       x="590.36"
       y="143.57"
       width="7.3"
       height="41.39"
       id="svg_50"
       fill="#6a5c99" />
    <path
       d="m580.62,170.35l0,0a25.16,25.16 0 0 1 25.16,25.16l0,1.62a25.16,25.16 0 0 1 -25.16,25.16l0,0a0,0 0 0 1 0,0l0,-51.94a0,0 0 0 1 0,0z"
       id="svg_51"
       fill="#ffd037" />
    <rect
       x="575.75"
       y="167.92"
       width="11.36"
       height="56.81"
       rx="5.68"
       ry="5.68"
       id="svg_52"
       fill="#6a5c99" />
    <rect
       x="1533.20001"
       y="587.52999"
       width="7.3"
       height="41.39"
       transform="rotate(-180 974.760009765625,386.6499938964844) "
       id="svg_53"
       fill="#6a5c99" />
    <path
       d="m1526.7,678.42001l0,0a25.16,25.16 0 0 1 25.16,25.16l0,1.62a25.16,25.16 0 0 1 -25.16,25.16l0,0a0,0 0 0 1 0,0l0,-51.94a0,0 0 0 1 0,0z"
       transform="rotate(180 976.3800048828125,450.760009765625) "
       id="svg_54"
       fill="#ffd037" />
    <rect
       x="1568.90998"
       y="675.99001"
       width="11.36"
       height="56.81"
       rx="5.68"
       ry="5.68"
       transform="rotate(-180 999.9199829101562,450.760009765625) "
       id="svg_55"
       fill="#6a5c99" />
    <path
       d="m589.5,99.33c-9.89,-20.56 -31.43,-45.42 -77.86,-47.41l0,-0.06l-0.56,0l0,0l-16.45,0.78l0,0.08c-46.12,2.12 -67.56,26.89 -77.42,47.38a106.59,106.59 0 0 0 -10.22,44.4l5.68,-0.14l5.68,-0.13a96.65,96.65 0 0 1 9.23,-39.52c12.52,-25.72 35.56,-39.39 68.47,-40.66l0,0l14.55,-0.81l0,0c32.93,1.26 55.98,14.95 68.49,40.66a96.65,96.65 0 0 1 9.25,39.54l5.68,0.13l5.68,0.14a106.59,106.59 0 0 0 -10.2,-44.38z"
       id="svg_56"
       fill="#ffd037" />
    <rect
       x="74.28"
       y="579"
       width="774.71"
       height="208"
       id="svg_57"
       fill="#d6d6e3" />
    <rect
       x="74.28"
       y="593"
       width="774.71"
       height="27"
       id="svg_58"
       opacity="0.1" />
    <rect
       x="22.31"
       y="576"
       width="878.63"
       height="27"
       id="svg_59"
       fill="#d6d6e3" />
  </g>
  <path
     style="fill:#008000;stroke-width:0.88626128"
     d="m 56.661338,569.0083 c -2.30768,-14.84358 -3.064188,-32.05632 -2.021022,-45.98407 2.932673,-39.15538 12.876306,-67.95064 36.586738,-105.94968 23.590126,-37.80623 35.802476,-64.8974 41.566166,-92.20797 1.44581,-6.8508 1.98024,-12.5535 2.04852,-21.85892 l 0.0924,-12.58997 1.57622,4.61362 c 2.60382,7.62143 7.55007,28.80669 9.04362,38.73468 2.00206,13.30829 2.67026,35.72254 1.41348,47.41498 -2.33081,21.68484 -6.46742,35.54912 -16.92344,56.72072 -10.5012,21.26309 -14.68862,37.88366 -16.87772,66.99038 -1.36857,18.19695 0.2354,51.59153 3.26336,67.9429 l 0.53339,2.88035 H 87.333542 57.704054 Z"
     id="path170"
     inkscape:connector-curvature="0" />
  <path
     style="fill:#008000;stroke-width:0.88626128"
     d="m 119.0808,573.2781 c -3.8035,-19.12949 -4.858,-62.94017 -2.01054,-83.53013 2.99769,-21.67626 7.37966,-36.01212 16.07275,-52.58289 13.94642,-26.58466 19.48636,-57.17851 16.39651,-90.5483 -1.70443,-18.40752 -6.56427,-40.99659 -12.31831,-57.25682 -1.44085,-4.07167 -2.49515,-7.52761 -2.3429,-7.67986 0.15225,-0.15225 2.27413,2.43169 4.71529,5.74209 20.90177,28.34449 32.33424,58.91427 34.75108,92.92249 1.68316,23.68444 -1.60182,46.19601 -10.72066,73.46738 -2.94158,8.79727 -6.09775,19.58439 -7.01371,23.97139 -5.19119,24.8632 -4.279,56.40208 2.60152,89.94771 l 1.63763,7.98416 h -20.64204 -20.64203 z"
     id="path172"
     inkscape:connector-curvature="0" />
  <path
     style="fill:#aa4400;stroke-width:0.88626128"
     d="M 65.935004,759.65594 C 55.756384,755.21231 49.989711,751.50292 42.631661,744.66618 22.251105,725.72955 15.320584,699.04537 20.991332,661.34565 c 2.803737,-18.63953 3.809705,-35.97359 2.741457,-47.23864 -0.500079,-5.27351 -0.909569,-9.88732 -0.909976,-10.2529 -4.08e-4,-0.36558 11.564969,-0.6647 25.700836,-0.6647 h 25.701576 v 79.76352 c 0,43.86993 -0.299113,79.75865 -0.664696,79.75269 -0.365582,-0.006 -3.797069,-1.3783 -7.625525,-3.04968 z"
     id="path174"
     inkscape:connector-curvature="0" />
  <path
     style="fill:#aa4400;stroke-width:0.88626128"
     d="M 20.286112,595.21306 C 17.314411,585.39044 11.6944,577.81256 4.8691016,574.42515 l -4.64669169,-2.30616 15.50957209,0.36466 c 8.530265,0.20056 18.101886,0.91002 21.27027,1.57659 l 5.760698,1.21194 -10.38804,0.24947 -10.38804,0.24948 -0.247095,11.71505 c -0.240818,11.41748 -0.277744,11.61375 -1.453663,7.72688 z"
     id="path176"
     inkscape:connector-curvature="0" />
  <path
     style="fill:#917c6f;stroke-width:0.88626128"
     d="m 61.04205,756.85472 c -20.726383,-10.35866 -34.437215,-27.9873 -39.707122,-51.05326 -1.992927,-8.72288 -1.985446,-33.21433 0.01388,-45.44819 2.423667,-14.8304 3.624553,-36.02516 2.636298,-46.52872 -0.481556,-5.11816 -0.750413,-9.46234 -0.597459,-9.65372 0.152953,-0.19139 11.65398,-0.54694 25.557837,-0.7901 l 25.27974,-0.44211 -0.0015,50.86385 c -0.002,67.01968 -0.836643,108.02771 -2.198814,108.02771 -0.565169,0 -5.507463,-2.23896 -10.982875,-4.97546 z"
     id="path182"
     inkscape:connector-curvature="0" />
  <path
     style="fill:#917c6f;stroke-width:0.88626128"
     d="M 19.045231,591.16377 C 16.793457,584.86045 11.531276,578.3717 5.9650908,575.03478 l -4.8310096,-2.89618 10.6224298,0.48986 c 5.842337,0.26942 14.01238,0.74763 18.155651,1.06268 7.113623,0.54091 7.311081,0.60958 3.545045,1.23281 -2.193496,0.36299 -5.639529,0.68954 -7.657851,0.72567 l -3.669676,0.0657 -0.76163,9.90932 -0.761631,9.90932 z"
     id="path184"
     inkscape:connector-curvature="0" />
</svg>
